<?xml version="1.0" encoding="UTF-8"?>
<svg id="Layer_1" xmlns="http://www.w3.org/2000/svg" version="1.1" viewBox="0 0 285.3 109">
  <!-- Generator: Adobe Illustrator 29.3.0, SVG Export Plug-In . SVG Version: 2.1.0 Build 146)  -->
  <defs>
    <style>
      .st0 {
        fill: #fff;
      }
    </style>
  </defs>
  <path class="st0" d="M54.8,108.3h50.1c4.2,0,8.5-1.7,11.4-4.7l70.1-70.1c.2-.2.5-.3.8-.3h43.2c10.8,0,19.8,8,21.4,18.4,0,0,0,.2,0,.2,0,.3,0,.5,0,.8,0,0,0,0,0,0,0,.2,0,.3,0,.5,0,.1,0,.3,0,.4,0,.2,0,.5,0,.7,0,.2,0,.3,0,.5,0,.2,0,.4,0,.6,0,.2,0,.3,0,.5,0,.2,0,.4,0,.6,0,.1,0,.2,0,.3,0,0,0,0,0,.1-1.1,10.9-10.3,19.5-21.5,19.5s-84.9-.2-84.9-.2c-.8,0-1.4.5-1.6,1.1-.2.6-.1,1.3.4,1.8l24.3,24.3c3,3,7.1,4.7,11.3,4.7l50.5.2c29.8,0,53.9-23.6,53.5-53.5h0c0-29.4-24.1-53.5-53.5-53.5h-50.1c-4.2,0-8.5,1.7-11.4,4.7l-70.1,70.1c-.2.2-.5.3-.8.3h-43.2c-10.8,0-19.8-8-21.4-18.4,0,0,0-.2,0-.2,0-.3,0-.5,0-.8,0,0,0,0,0,0,0-.2,0-.3,0-.5,0-.1,0-.3,0-.4,0-.2,0-.5,0-.7,0-.2,0-.3,0-.5,0-.2,0-.4,0-.6,0-.2,0-.3,0-.5,0-.2,0-.4,0-.6,0-.1,0-.2,0-.3,0,0,0,0,0-.1,1.1-10.9,10.3-19.5,21.5-19.5h84.7c.8,0,1.4-.5,1.6-1.1.2-.6.1-1.3-.4-1.8l-24.2-24.3c-3-3-7.1-4.7-11.3-4.7h-50.4C25.1,1.3.9,24.9,1.3,54.7h0c0,29.4,24.1,53.5,53.5,53.5Z"/>
</svg>