<svg width="758" height="501" viewBox="0 0 758 501" fill="none" xmlns="http://www.w3.org/2000/svg">
<g opacity="0.7">
<path d="M246.35 332.159H322.94C329.256 332.159 335.573 329.792 340.31 325.058L446.904 218.546H514.019C530.6 218.546 544.023 230.381 546.392 246.161V247.739V249.316C544.812 265.885 530.6 278.509 514.019 278.509H385.317C383.738 278.509 382.948 278.509 382.948 280.087V283.242L420.058 320.324C424.796 325.058 431.113 327.425 437.429 327.425H514.019C559.025 327.425 596.135 291.921 595.346 246.161C595.346 201.189 559.025 164.896 514.019 164.896H438.219C431.902 164.896 425.585 167.263 420.848 171.997L314.254 278.509H247.14C230.558 278.509 217.135 266.674 214.767 250.894V249.316V247.739C216.346 231.17 230.558 218.546 247.14 218.546H375.842C377.421 218.546 378.21 218.546 378.21 216.968V213.813L341.1 176.731C336.363 171.997 330.046 169.63 323.729 169.63H247.14C202.133 169.63 165.023 205.134 165.813 250.894C165.813 295.866 202.133 332.159 247.14 332.159H246.35Z" fill="white"/>
</g>
</svg>
