<?xml version="1.0" encoding="UTF-8"?>
<svg id="Layer_1" xmlns="http://www.w3.org/2000/svg" version="1.1" viewBox="0 0 55.1 21.2">
  <!-- Generator: Adobe Illustrator 29.3.0, SVG Export Plug-In . SVG Version: 2.1.0 Build 146)  -->
  <defs>
    <style>
      .st0 {
        fill: #fff;
      }
    </style>
  </defs>
  <path class="st0" d="M10.6,20.9h9.7c.8,0,1.6-.3,2.2-.9l13.5-13.5s0,0,.2,0h8.3c2.1,0,3.8,1.5,4.1,3.5,0,0,0,0,0,0,0,0,0,0,0,.1,0,0,0,0,0,0,0,0,0,0,0,0,0,0,0,0,0,0,0,0,0,0,0,.1,0,0,0,0,0,0,0,0,0,0,0,.1,0,0,0,0,0,0,0,0,0,0,0,.1,0,0,0,0,0,0,0,0,0,0,0,0-.2,2.1-2,3.7-4.1,3.7s-16.3,0-16.3,0c-.2,0-.3,0-.3.2,0,.1,0,.2,0,.4l4.7,4.7c.6.6,1.4.9,2.2.9h9.7c5.7,0,10.4-4.5,10.3-10.3h0c0-5.7-4.6-10.3-10.3-10.3h-9.6c-.8,0-1.6.3-2.2.9l-13.5,13.5s0,0-.2,0h-8.3c-2.1,0-3.8-1.5-4.1-3.5,0,0,0,0,0,0,0,0,0,0,0-.1,0,0,0,0,0,0,0,0,0,0,0,0,0,0,0,0,0,0,0,0,0,0,0-.1,0,0,0,0,0,0,0,0,0,0,0-.1,0,0,0,0,0,0,0,0,0,0,0-.1,0,0,0,0,0,0,0,0,0,0,0,0,.2-2.1,2-3.7,4.1-3.7h16.3c.2,0,.3,0,.3-.2,0-.1,0-.2,0-.4l-4.7-4.7c-.6-.6-1.4-.9-2.2-.9h-9.7C4.9.3.2,4.9.3,10.6H.3c0,5.7,4.6,10.3,10.3,10.3Z"/>
</svg>