<svg width="182" height="69" viewBox="0 0 182 69" fill="none" xmlns="http://www.w3.org/2000/svg">
<path d="M34.4617 69H66.7454C69.4552 69 72.1985 67.9292 74.1054 65.9884L119.236 20.8472C119.236 20.8472 119.57 20.613 119.771 20.613H147.572C154.564 20.613 160.351 25.7662 161.322 32.4922C161.322 32.5257 161.322 32.5926 161.322 32.6261C161.322 32.7934 161.355 32.9607 161.389 33.128C161.389 33.2284 161.389 33.3288 161.389 33.4292C161.389 33.5296 161.389 33.63 161.389 33.6969C161.389 33.8307 161.389 33.9981 161.389 34.1319C161.389 34.2323 161.389 34.3327 161.389 34.4331C161.389 34.5669 161.389 34.7008 161.389 34.8346C161.389 34.935 161.389 35.0689 161.389 35.1693C161.389 35.3031 161.389 35.437 161.389 35.5708C161.389 35.6377 161.389 35.7047 161.389 35.7716V35.8385C160.719 42.8657 154.765 48.387 147.538 48.387C147.471 48.387 92.8735 48.2197 92.8735 48.2197C92.3716 48.2197 91.9702 48.5543 91.8364 48.9559C91.7025 49.324 91.736 49.7924 92.104 50.1271L107.727 65.7541C109.668 67.695 112.277 68.7658 114.987 68.7658L147.538 68.9331C166.708 68.9331 182.264 53.7076 181.997 34.4665C181.997 15.5267 166.507 0 147.538 0H115.255C112.545 0 109.802 1.07081 107.895 3.01164L62.7643 48.1528C62.7643 48.1528 62.4297 48.387 62.229 48.387H34.3948C27.4027 48.387 21.6151 43.2338 20.6449 36.5078C20.6449 36.4743 20.6449 36.4074 20.6449 36.3739C20.6449 36.2066 20.6115 36.0393 20.578 35.872C20.578 35.7716 20.578 35.6712 20.578 35.5708C20.578 35.4704 20.578 35.37 20.578 35.3031C20.578 35.1693 20.578 35.0019 20.578 34.8681C20.578 34.7677 20.578 34.6673 20.578 34.5669C20.578 34.4331 20.578 34.2992 20.578 34.1654C20.578 34.065 20.578 33.9311 20.578 33.8307C20.578 33.6969 20.578 33.563 20.578 33.4292C20.578 33.3623 20.578 33.2953 20.578 33.2284V33.1615C21.2471 26.1343 27.202 20.613 34.4282 20.613H88.9593C89.4611 20.613 89.8625 20.2784 89.9964 19.8768C90.1302 19.5087 90.0967 19.0403 89.7287 18.7056L74.1054 3.07857C72.165 1.13773 69.5556 0.0669254 66.8457 0.0669254H34.3948C15.2922 0.0669254 -0.264235 15.2924 0.00340244 34.5335C0.00340244 53.4733 15.5264 69 34.4617 69Z" fill="#2CA5A0"/>
</svg>
