<svg width="173" height="67" viewBox="0 0 173 67" fill="none" xmlns="http://www.w3.org/2000/svg">
<path d="M32.4406 67H63.2863C65.8302 67 68.3742 66.0519 70.2822 64.1557L113.212 21.4906C113.212 21.4906 113.212 21.4906 113.848 21.4906H140.241C146.919 21.4906 152.325 26.2311 153.279 32.5519C153.279 32.5519 153.279 32.5519 153.279 32.8679C153.279 32.8679 153.279 32.8679 153.279 33.184C153.279 33.184 153.279 33.184 153.279 33.5C153.279 33.5 153.279 33.5 153.279 33.816C152.643 40.4528 146.919 45.5094 140.241 45.5094C133.563 45.5094 88.408 45.5094 88.408 45.5094C87.772 45.5094 87.454 45.5094 87.454 46.1415C87.454 46.4575 87.454 46.7736 87.454 47.4057L102.4 62.2594C104.308 64.1557 106.852 65.1038 109.396 65.1038H140.241C158.367 65.1038 173.313 50.8821 172.995 32.5519C172.995 14.5377 158.367 0 140.241 0H109.714C107.17 0 104.626 0.948112 102.718 2.84434L59.7883 45.5094C59.7883 45.5094 59.7883 45.5094 59.1523 45.5094H32.7586C26.0807 45.5094 20.6747 40.7689 19.7208 34.4481C19.7208 34.4481 19.7208 34.4481 19.7208 34.1321C19.7208 34.1321 19.7208 34.1321 19.7208 33.816C19.7208 33.816 19.7208 33.816 19.7208 33.5C19.7208 33.5 19.7208 33.5 19.7208 33.184C20.3567 26.5472 26.0807 21.4906 32.7586 21.4906H84.592C85.228 21.4906 85.546 21.4906 85.546 20.8585C85.546 20.5425 85.546 20.2264 85.546 19.5943L70.6002 4.74057C68.6922 2.84434 66.1482 1.89623 63.6043 1.89623H32.7586C14.6328 1.89623 -0.313014 16.1179 0.00498244 34.4481C0.00498244 52.4623 14.6328 67 32.7586 67H32.4406Z" fill="white"/>
</svg>
