<svg width="133" height="20" viewBox="0 0 133 20" fill="none" xmlns="http://www.w3.org/2000/svg">
<g clip-path="url(#clip0_711_67)">
<path d="M9.91675 19.6522H19.2077C19.9876 19.6522 20.777 19.3514 21.3258 18.8063L34.3139 6.12772C34.3139 6.12772 34.4102 6.06193 34.4679 6.06193H42.4687C44.481 6.06193 46.1466 7.5093 46.4258 9.3984C46.4258 9.4078 46.4258 9.4266 46.4258 9.436C46.4258 9.48299 46.4354 9.52998 46.4451 9.57697C46.4451 9.60517 46.4451 9.63336 46.4451 9.66156C46.4451 9.68975 46.4451 9.71795 46.4451 9.73675C46.4451 9.77434 46.4451 9.82133 46.4451 9.85893C46.4451 9.88712 46.4451 9.91532 46.4451 9.94351C46.4451 9.98111 46.4451 10.0187 46.4451 10.0563C46.4451 10.0845 46.4451 10.1221 46.4451 10.1503C46.4451 10.1879 46.4451 10.2255 46.4451 10.2631C46.4451 10.2819 46.4451 10.3007 46.4451 10.3195V10.3383C46.2525 12.3119 44.5387 13.8627 42.4591 13.8627C42.4398 13.8627 26.7271 13.8157 26.7271 13.8157C26.5827 13.8157 26.4671 13.9097 26.4286 14.0225C26.3901 14.1258 26.3997 14.2574 26.5056 14.3514L31.0019 18.7405C31.5603 19.2856 32.3113 19.5864 33.0911 19.5864L42.4591 19.6334C47.9759 19.6334 52.4529 15.357 52.3759 9.95291C52.3759 4.63336 47.9181 0.272461 42.4591 0.272461H33.1682C32.3883 0.272461 31.5988 0.573213 31.05 1.11833L18.062 13.7969C18.062 13.7969 17.9657 13.8627 17.9079 13.8627H9.8975C7.88526 13.8627 6.21964 12.4153 5.94043 10.5262C5.94043 10.5168 5.94043 10.498 5.94043 10.4886C5.94043 10.4416 5.9308 10.3946 5.92117 10.3476C5.92117 10.3195 5.92117 10.2913 5.92117 10.2631C5.92117 10.2349 5.92117 10.2067 5.92117 10.1879C5.92117 10.1503 5.92117 10.1033 5.92117 10.0657C5.92117 10.0375 5.92117 10.0093 5.92117 9.98111C5.92117 9.94351 5.92117 9.90592 5.92117 9.86833C5.92117 9.84013 5.92117 9.80254 5.92117 9.77434C5.92117 9.73675 5.92117 9.69915 5.92117 9.66156C5.92117 9.64276 5.92117 9.62397 5.92117 9.60517V9.58637C6.11373 7.61269 7.8275 6.06193 9.90713 6.06193H25.6006C25.745 6.06193 25.8606 5.96795 25.8991 5.85517C25.9376 5.75178 25.928 5.62021 25.8221 5.52622L21.3258 1.13712C20.7674 0.59201 20.0164 0.291258 19.2366 0.291258H9.8975C4.39996 0.291258 -0.0770207 4.56757 2.62493e-06 9.97171C2.62493e-06 15.2913 4.46735 19.6522 9.91675 19.6522Z" fill="#2CA5A0"/>
<path d="M58.2681 0.356934H64.2278L68.1752 16.3908H68.4256L72.373 0.356934H78.3038V19.6426H75.0014V3.63701H74.7511L70.8326 19.6426H65.7779L61.8593 3.63701H61.609V19.6426H58.2778V0.356934H58.2681Z" fill="#0A3959"/>
<path d="M82.8193 16.6163H85.6114V3.41144H82.8193V0.356934H91.8214V3.41144H89.0293V16.6069H91.8214V19.6332H82.8193V16.6069V16.6163Z" fill="#0A3959"/>
<path d="M96.3369 0.356934H102.913C107.005 0.356934 109.662 2.72535 109.662 6.22159C109.662 8.91896 108.218 11.0994 105.541 11.8983L110.48 19.6426H106.36L102.123 12.34H99.7548V19.6426H96.3369V0.356934ZM102.942 9.3419C104.781 9.3419 106.157 8.27047 106.157 6.28738C106.157 4.71784 105.06 3.44904 102.797 3.44904H99.7452V9.3419H102.932H102.942Z" fill="#0A3959"/>
<path d="M112.598 10C112.598 4.32331 116.998 0 122.814 0C128.629 0 133 4.3797 133 10C133 15.6203 128.6 20 122.785 20C116.97 20 112.598 15.7049 112.598 10ZM129.447 10C129.447 6.11842 126.597 3.19549 122.814 3.19549C119.03 3.19549 116.151 6.11842 116.151 10C116.151 13.8816 118.972 16.8045 122.814 16.8045C126.655 16.8045 129.447 13.938 129.447 10Z" fill="#0A3959"/>
</g>
<defs>
<clipPath id="clip0_711_67">
<rect width="133" height="20" fill="white"/>
</clipPath>
</defs>
</svg>
