<svg width="180" height="64" viewBox="0 0 180 64" fill="none" xmlns="http://www.w3.org/2000/svg">
<path d="M31.3 42.2H41C41.8 42.2 42.6 41.9 43.2 41.3L56.7 27.8C56.7 27.8 56.7 27.8 56.9 27.8H65.2C67.2999 27.8 69 29.3 69.3 31.3C69.3 31.3 69.3 31.3 69.3 31.4C69.3 31.4 69.3 31.4 69.3 31.5C69.3 31.5 69.3 31.5 69.3 31.6C69.3 31.6 69.3 31.6 69.3 31.7C69.1 33.8 67.2999 35.4 65.2 35.4C63.1 35.4 48.9 35.4 48.9 35.4C48.7 35.4 48.6 35.4 48.6 35.6C48.6 35.7 48.6 35.8 48.6 36L53.3 40.7C53.9 41.3 54.7 41.6 55.5 41.6H65.2C70.9 41.6 75.6 37.1 75.5 31.3C75.5 25.6 70.9 21 65.2 21H55.6C54.8 21 54 21.3 53.4 21.9L39.9 35.4C39.9 35.4 39.9 35.4 39.7 35.4H31.4C29.3 35.4 27.6 33.9 27.3 31.9C27.3 31.9 27.3 31.9 27.3 31.8C27.3 31.8 27.3 31.8 27.3 31.7C27.3 31.7 27.3 31.7 27.3 31.6C27.3 31.6 27.3 31.6 27.3 31.5C27.5 29.4 29.3 27.8 31.4 27.8H47.7C47.9 27.8 48 27.8 48 27.6C48 27.5 48 27.4 48 27.2L43.3 22.5C42.7 21.9 41.9 21.6 41.1 21.6H31.4C25.7 21.6 21 26.1 21.1 31.9C21.1 37.6 25.7 42.2 31.4 42.2H31.3Z" fill="#2CA5A0"/>
<path d="M81.5 21.6997H87.7L91.8 38.7997H92.1L96.2 21.6997H102.4V42.1997H99V25.1997H98.7L94.6 42.1997H89.4L85.3 25.1997H85V42.1997H81.5V21.6997Z" fill="#0A3959"/>
<path d="M107 38.9997H109.9V24.9997H107V21.6997H116.4V24.9997H113.5V38.9997H116.4V42.1997H107V38.9997Z" fill="#0A3959"/>
<path d="M121 21.6996H127.8C132 21.6996 134.8 24.1996 134.8 27.8996C134.8 31.5996 133.3 33.0996 130.5 33.8996L135.6 42.0996H131.3L126.9 34.2996H124.4V42.0996H120.9V21.5996L121 21.6996ZM127.9 31.1996C129.8 31.1996 131.2 30.0996 131.2 27.8996C131.2 25.6996 130.1 24.8996 127.7 24.8996H124.5V31.1996H127.8H127.9Z" fill="#0A3959"/>
<path d="M137.9 31.8998C137.9 25.8998 142.5 21.2998 148.5 21.2998C154.5 21.2998 159.1 25.9998 159.1 31.8998C159.1 37.7998 154.5 42.4998 148.5 42.4998C142.5 42.4998 137.9 37.8998 137.9 31.8998ZM155.4 31.8998C155.4 27.7998 152.4 24.6998 148.5 24.6998C144.6 24.6998 141.6 27.7998 141.6 31.8998C141.6 35.9998 144.5 39.0998 148.5 39.0998C152.5 39.0998 155.4 36.0998 155.4 31.8998Z" fill="#0A3959"/>
</svg>
