<svg width="100" height="39" viewBox="0 0 100 39" fill="none" xmlns="http://www.w3.org/2000/svg">
<path d="M18.7518 39H36.5817C38.0522 39 39.5227 38.4481 40.6255 37.3443L65.4403 12.5094C65.4403 12.5094 65.4403 12.5094 65.8079 12.5094H81.0644C84.9245 12.5094 88.0493 15.2689 88.6007 18.9481C88.6007 18.9481 88.6007 18.9481 88.6007 19.1321C88.6007 19.1321 88.6007 19.1321 88.6007 19.316C88.6007 19.316 88.6007 19.316 88.6007 19.5C88.6007 19.5 88.6007 19.5 88.6007 19.684C88.2331 23.5472 84.9245 26.4906 81.0644 26.4906C77.2043 26.4906 51.1029 26.4906 51.1029 26.4906C50.7353 26.4906 50.5514 26.4906 50.5514 26.8585C50.5514 27.0424 50.5514 27.2264 50.5514 27.5943L59.1906 36.2406C60.2935 37.3443 61.764 37.8962 63.2345 37.8962H81.0644C91.5417 37.8962 100.181 29.6179 99.9971 18.9481C99.9971 8.46226 91.5417 0 81.0644 0H63.4183C61.9478 0 60.4773 0.551886 59.3745 1.65566L34.5597 26.4906C34.5597 26.4906 34.5597 26.4906 34.1921 26.4906H18.9356C15.0755 26.4906 11.9507 23.7311 11.3993 20.0519C11.3993 20.0519 11.3993 20.0519 11.3993 19.8679C11.3993 19.8679 11.3993 19.8679 11.3993 19.684C11.3993 19.684 11.3993 19.684 11.3993 19.5C11.3993 19.5 11.3993 19.5 11.3993 19.316C11.7669 15.4528 15.0755 12.5094 18.9356 12.5094H48.8971C49.2647 12.5094 49.4486 12.5094 49.4486 12.1415C49.4486 11.9575 49.4486 11.7736 49.4486 11.4057L40.8093 2.75943C39.7065 1.65566 38.236 1.10377 36.7655 1.10377H18.9356C8.45827 1.10377 -0.180933 9.38207 0.00288002 20.0519C0.00288002 30.5377 8.45827 39 18.9356 39H18.7518Z" fill="black"/>
</svg>
