<?xml version="1.0" encoding="UTF-8"?>
<svg id="Layer_1" xmlns="http://www.w3.org/2000/svg" version="1.1" viewBox="0 0 48 48">
  <!-- Generator: Adobe Illustrator 29.3.0, SVG Export Plug-In . SVG Version: 2.1.0 Build 146)  -->
  <defs>
    <style>
      .st0 {
        fill: #2ba59f;
      }

      .st1 {
        fill: #fff;
        stroke: #fff;
        stroke-miterlimit: 10;
      }
    </style>
  </defs>
  <circle class="st1" cx="24" cy="24" r="23.3"/>
  <path class="st0" d="M18.6,31.8c.6,0,1.2-.2,1.7-.7l10.2-10.2h6.4c1.6,0,2.9,1.2,3.1,2.7h0c-.2,1.7-1.5,2.9-3.1,2.9h-12.3c-.1,0-.2,0-.2.2v.3l3.5,3.5c.4.4,1,.7,1.6.7h7.3c4.3,0,7.8-3.4,7.8-7.7h0c0-4.3-3.5-7.8-7.8-7.8h-7.3c-.6,0-1.2.2-1.7.7l-10.2,10.2h-6.4c-1.6,0-2.9-1.2-3.1-2.7h0c.2-1.7,1.5-2.9,3.1-2.9h12.3c.1,0,.2,0,.2-.2v-.3l-3.5-3.5c-.4-.4-1-.7-1.6-.7h-7.3c-4.3,0-7.8,3.4-7.8,7.8h0c0,4.3,3.5,7.8,7.8,7.8h7.3Z"/>
</svg>